<svg xmlns="http://www.w3.org/2000/svg" width="26.928" height="27.378" viewBox="0 0 26.928 27.378">
  <g id="download_2_" data-name="download (2)" transform="translate(-4.213 -0.003)">
    <path id="Path_32960" data-name="Path 32960" d="M10.734,0H24.62a6.539,6.539,0,0,1,6.521,6.521V20.86a6.54,6.54,0,0,1-6.521,6.521H10.734A6.54,6.54,0,0,1,4.213,20.86V6.524A6.539,6.539,0,0,1,10.734,0Z" fill="#292d32" fill-rule="evenodd"/>
    <path id="Path_32961" data-name="Path 32961" d="M153.062,112.262h10.494a.241.241,0,0,1,.241.241v1.34a.241.241,0,0,1-.241.241H153.062a.241.241,0,0,1-.241-.241V112.5A.241.241,0,0,1,153.062,112.262Zm5.076-1.534-5.161-5.163a.628.628,0,0,1-.176-.326.635.635,0,0,1,.624-.758h2.434v-7.15a.241.241,0,0,1,.241-.241h4.415a.242.242,0,0,1,.241.241v7.15h2.434a.638.638,0,0,1,.624.758.628.628,0,0,1-.176.326l-5.161,5.163A.241.241,0,0,1,158.138,110.728Z" transform="translate(-140.632 -91.896)" fill="#fff"/>
  </g>
</svg>
