<svg xmlns="http://www.w3.org/2000/svg" width="19.996" height="19.445" viewBox="0 0 19.996 19.445">
  <g id="like-1" transform="translate(-2 -2.266)">
    <path id="Path_33020" data-name="Path 33020" d="M21.651,10.031a2.226,2.226,0,0,0-1.87-.88h-4.1a.9.9,0,0,1-.69-.31.944.944,0,0,1-.21-.77l.51-3.28a2.13,2.13,0,0,0-3.82-1.64l-4.22,6.27-.12.2v8.84l.15.15,3.17,2.45a3.294,3.294,0,0,0,2.04.65h3.9a3.194,3.194,0,0,0,2.99-2.24l2.46-7.49A2.081,2.081,0,0,0,21.651,10.031Z" fill="#a4a4b8" opacity="0.6"/>
    <path id="Path_33021" data-name="Path 33021" d="M5.21,6.379H4.18c-1.55,0-2.18.6-2.18,2.08v10.06C2,20,2.63,20.6,4.18,20.6H5.21c1.55,0,2.18-.6,2.18-2.08V8.459C7.39,6.979,6.76,6.379,5.21,6.379Z" fill="#a4a4b8"/>
  </g>
</svg>
